<?xml version="1.0" encoding="UTF-8"?>
<!DOCTYPE svg PUBLIC "-//W3C//DTD SVG 1.1//EN" "http://www.w3.org/Graphics/SVG/1.1/DTD/svg11.dtd">
<!-- Creator: CorelDRAW Standard 2024 -->
<svg xmlns="http://www.w3.org/2000/svg" xml:space="preserve" width="3400px" height="1000px" version="1.1" style="shape-rendering:geometricPrecision; text-rendering:geometricPrecision; image-rendering:optimizeQuality; fill-rule:evenodd; clip-rule:evenodd"
viewBox="0 0 3400 999.999"
 xmlns:xlink="http://www.w3.org/1999/xlink"
 xmlns:xodm="http://www.corel.com/coreldraw/odm/2003">
 <defs>
  <style type="text/css">
   <![CDATA[
    .fil0 {fill:#5DB638}
    .fil1 {fill:#5DB638;fill-rule:nonzero}
    .fil2 {fill:#5DB638;fill-rule:nonzero}
   ]]>
  </style>
 </defs>
 <g id="Layer_x0020_1">
  <metadata id="CorelCorpID_0Corel-Layer"/>
  <g id="Layer1">
   <g>
    <path class="fil0" d="M897.316 48c-39.208,70.171 -60.287,133.956 -62.354,191.066 106.7,0.777 208.139,13.288 295.393,57.39 -115.242,29.018 -208.96,72.413 -287.035,126.147 127.238,81.138 198.682,197.75 206.622,354.851 -60.671,-67.3 -132.551,-111.245 -214.937,-133.301 16.463,107.852 46.074,208.515 90.577,300.995 -187.349,-213.75 -448.185,-175.816 -475.719,7.852 -39.156,-43.928 -70.268,-215.495 -63.559,-280.684 -46.387,24.943 -106.438,58.507 -139.739,105.13 -11.08,-94.801 14.867,-185.143 87.018,-269.979 -105.13,-10.793 -191.939,-6.893 -275.083,0 114.029,-191.538 274.638,-216.691 443.884,-211.046 135.814,-189.408 265.8,-229.759 394.932,-248.421zm-187.001 564.535c-41.145,55.279 -74.56,101.388 -103.298,141.939 -28.006,-33.554 -50.786,-77.534 -70.258,-128.136 62.642,-10.339 118.696,-12.791 173.556,-13.803zm-71.769 -206.423l-0.005 -0.017 -0.089 -0.275 -0.089 -0.275c-0.209,-0.641 -0.422,-1.278 -0.639,-1.913l-0.093 -0.272 -0.004 -0.012c-0.279,-0.808 -0.563,-1.611 -0.855,-2.409l-0.003 -0.008 -0.099 -0.269c-0.229,-0.624 -0.463,-1.246 -0.701,-1.864l-0.102 -0.265 -0.102 -0.265 -0.104 -0.264c-0.233,-0.593 -0.469,-1.184 -0.708,-1.771l-0.027 -0.065 -0.107 -0.261 -0.107 -0.26 -0.037 -0.087c-0.236,-0.569 -0.475,-1.134 -0.718,-1.697l-0.011 -0.027 -0.111 -0.257 -0.112 -0.256 -0.112 -0.257c-0.225,-0.512 -0.453,-1.021 -0.683,-1.528l-0.116 -0.253 -0.007 -0.015 -0.051 -0.112 -0.051 -0.111 -0.052 -0.111 -0.051 -0.111 -0.051 -0.111c-0.291,-0.629 -0.587,-1.254 -0.887,-1.874l-0.053 -0.109 -0.053 -0.109 -0.053 -0.11c-0.302,-0.618 -0.607,-1.234 -0.917,-1.844l-0.055 -0.108 -0.055 -0.107 -0.055 -0.108 -0.055 -0.107 -0.055 -0.108 -0.055 -0.107c-0.275,-0.536 -0.555,-1.07 -0.837,-1.599l-0.057 -0.106 -0.075 -0.14 -0.041 -0.077 -0.042 -0.077 -0.041 -0.078 -0.042 -0.077 -0.042 -0.077c-0.279,-0.515 -0.561,-1.027 -0.845,-1.536l-0.043 -0.076 -0.042 -0.076 -0.043 -0.076 -0.043 -0.077 -0.043 -0.075 -0.043 -0.076 -0.043 -0.076 -0.043 -0.076 -0.043 -0.076 -0.043 -0.076c-0.273,-0.48 -0.549,-0.957 -0.828,-1.431l-0.044 -0.075 -0.044 -0.074 -0.221 -0.373 -0.045 -0.075 -0.044 -0.074 -0.044 -0.075 -0.062 -0.103 -0.014 -0.024 -0.014 -0.023 -0.014 -0.023 -0.014 -0.024c-0.267,-0.445 -0.538,-0.886 -0.81,-1.326l-0.014 -0.023 -0.015 -0.023 -0.014 -0.023 -0.145 -0.234 -0.046 -0.073 -0.045 -0.073c-0.335,-0.535 -0.672,-1.065 -1.014,-1.592l-0.046 -0.072 -0.047 -0.072 -0.047 -0.072 -0.046 -0.071 -0.047 -0.072 -0.047 -0.071 -0.047 -0.072 -0.047 -0.071 -0.047 -0.071 -0.046 -0.072c-0.267,-0.404 -0.535,-0.805 -0.805,-1.204l-0.048 -0.07 -0.047 -0.071 -0.048 -0.07 -0.384 -0.56 -0.048 -0.069 -0.048 -0.07 -0.026 -0.038 -0.015 -0.021 -0.015 -0.022c-0.272,-0.393 -0.548,-0.781 -0.824,-1.169l-0.015 -0.021 -0.015 -0.021 -0.015 -0.021 -0.015 -0.021 -0.015 -0.021 -0.015 -0.021 -0.015 -0.021 -0.238 -0.331 -0.015 -0.02 -0.014 -0.02 -0.015 -0.021 -0.015 -0.02 -0.015 -0.02 -0.014 -0.02 -0.015 -0.02 -0.014 -0.021 -0.014 -0.02 -0.015 -0.02c-0.249,-0.343 -0.498,-0.685 -0.75,-1.023l-0.014 -0.021 -0.015 -0.019 -0.015 -0.02 -0.154 -0.204 -0.031 -0.042 -0.032 -0.042 -0.346 -0.46 -0.032 -0.042 -0.032 -0.041 -0.031 -0.042 -0.032 -0.041 -0.031 -0.042c-0.275,-0.36 -0.55,-0.718 -0.828,-1.073l-0.032 -0.041 -0.032 -0.041 -0.032 -0.04 -0.033 -0.042 -0.483 -0.61 -0.032 -0.041 -0.095 -0.12 -0.015 -0.019 -0.002 -0.002c-0.259,-0.323 -0.52,-0.643 -0.782,-0.961l-0.015 -0.019 -0.015 -0.018 -0.015 -0.019 -0.016 -0.018 -0.015 -0.018 -0.015 -0.019 -0.015 -0.018 -0.015 -0.019 -0.016 -0.018 -0.015 -0.018 -0.015 -0.019 -0.339 -0.408 -0.015 -0.018 -0.015 -0.018 -0.015 -0.018c-0.284,-0.34 -0.57,-0.68 -0.858,-1.015l-0.015 -0.017 -0.015 -0.018 -0.015 -0.017 -0.299 -0.343 -0.028 -0.033 -0.029 -0.034 -0.029 -0.033 -0.029 -0.033 -0.029 -0.033 -0.028 -0.033 -0.029 -0.033 -0.029 -0.033 -0.029 -0.033 -0.029 -0.033 -0.028 -0.033 -0.029 -0.033 -0.029 -0.033 -0.029 -0.033c-0.337,-0.384 -0.676,-0.763 -1.018,-1.141l-0.03 -0.032 -0.028 -0.032 -0.03 -0.033 -0.029 -0.032 -0.029 -0.032 -0.03 -0.032 -0.029 -0.032 -0.059 -0.065 -0.029 -0.032 -0.03 -0.032 -0.029 -0.032 -0.029 -0.032 -0.03 -0.032 -0.03 -0.032 -0.338 -0.37 -0.013 -0.015 -0.015 -0.015 -0.013 -0.015 -0.014 -0.015c-0.243,-0.261 -0.488,-0.518 -0.733,-0.776l-0.014 -0.015 -0.013 -0.014 -0.015 -0.015 -0.013 -0.015 -0.014 -0.014 -0.014 -0.014 -0.014 -0.015 -0.008 -0.009 -0.009 -0.009 -0.009 -0.009 -0.008 -0.009 -0.017 -0.017 -0.008 -0.009 -0.034 -0.035 -0.008 -0.009 -0.414 -0.431 -0.008 -0.008 -0.009 -0.009 -0.009 -0.009 -0.013 -0.014 -0.014 -0.014 -0.013 -0.015 -0.014 -0.013 -0.014 -0.014 -0.014 -0.015 -0.013 -0.014 -0.014 -0.014 -0.013 -0.014c-0.238,-0.244 -0.475,-0.487 -0.714,-0.727l-0.014 -0.014 -0.014 -0.014 -0.014 -0.013 -0.008 -0.009 -0.009 -0.008 -0.008 -0.009 -0.008 -0.008 -0.017 -0.017 -0.009 -0.008 -0.381 -0.378 -0.008 -0.008 -0.009 -0.008 -0.025 -0.026 -0.008 -0.008 -0.009 -0.008 -0.009 -0.008 -0.008 -0.009 -0.017 -0.017 -0.008 -0.008 -0.025 -0.024 -0.025 -0.025 -0.024 -0.024 -0.025 -0.025 -0.025 -0.024 -0.024 -0.024 -0.025 -0.025 -0.025 -0.024c-0.404,-0.397 -0.811,-0.788 -1.22,-1.176l-0.025 -0.023 -0.025 -0.025 -0.025 -0.023 -0.025 -0.024 -0.025 -0.024 -0.026 -0.023 -0.024 -0.024 -0.009 -0.008 -0.01 -0.009 -0.009 -0.008 -0.009 -0.009 -0.009 -0.008 -0.009 -0.009 -0.009 -0.008 -0.009 -0.009 -0.009 -0.009 -0.009 -0.008 -0.009 -0.009 -0.009 -0.009 -0.01 -0.008 -0.008 -0.009 -0.009 -0.008 -0.01 -0.009c-0.137,-0.128 -0.27,-0.258 -0.408,-0.384l-0.009 -0.008 -0.009 -0.009 -0.009 -0.008 -0.013 -0.012 -0.013 -0.012 -0.014 -0.013c-0.244,-0.226 -0.491,-0.447 -0.737,-0.67l-0.013 -0.012 -0.027 -0.024 -0.013 -0.012 -0.013 -0.012 -0.011 -0.009 -0.011 -0.01 -0.011 -0.009 -0.01 -0.011 -0.011 -0.009 -0.011 -0.009 -0.01 -0.01 -0.012 -0.01 -0.01 -0.01 -0.011 -0.009 -0.01 -0.01 -0.517 -0.462 -0.011 -0.009 -0.032 -0.029 -0.011 -0.01 -0.013 -0.011 -0.012 -0.011 -0.013 -0.011 -0.026 -0.023 -0.013 -0.011c-0.234,-0.208 -0.469,-0.412 -0.705,-0.616l-0.013 -0.011 -0.013 -0.011 -0.013 -0.011 -0.011 -0.01 -0.011 -0.009 -0.011 -0.01 -0.011 -0.01 -0.011 -0.009 -0.011 -0.01 -0.012 -0.009 -0.011 -0.01 -0.279 -0.236 -0.011 -0.01 -0.067 -0.057 -0.011 -0.009 -0.011 -0.009 -0.011 -0.01 -0.012 -0.009 -0.011 -0.01 -0.011 -0.009 -0.011 -0.01 -0.011 -0.009 -0.011 -0.01 -0.011 -0.009 -0.011 -0.009 -0.012 -0.009 -0.011 -0.01 -0.011 -0.009 -0.011 -0.01 -0.012 -0.009 -0.011 -0.01 -0.011 -0.009 -0.011 -0.01 -0.011 -0.009 -0.011 -0.009 -0.011 -0.01 -0.012 -0.009 -0.011 -0.01 -0.022 -0.018c-0.418,-0.353 -0.839,-0.7 -1.262,-1.044l-0.023 -0.017 -0.022 -0.019 -0.023 -0.018 -0.021 -0.018 -0.023 -0.018 -0.022 -0.018 -0.013 -0.01 -0.012 -0.01 -0.012 -0.01 -0.013 -0.01 -0.013 -0.01 -0.012 -0.01 -0.063 -0.051 -0.012 -0.01c-0.196,-0.158 -0.391,-0.317 -0.588,-0.472l-0.013 -0.01 -0.012 -0.01 -0.013 -0.01 -0.013 -0.009 -0.012 -0.01 -0.012 -0.01 -0.013 -0.01c-0.218,-0.171 -0.439,-0.339 -0.658,-0.509l-0.013 -0.009 -0.012 -0.01 -0.013 -0.009 -0.025 -0.019 -0.012 -0.009 -0.013 -0.01 -0.012 -0.01 -0.013 -0.009 -0.012 -0.01 -0.013 -0.01 -0.013 -0.01 -0.013 -0.01 -0.013 -0.009 -0.013 -0.01 -0.657 -0.499 -0.013 -0.01 -0.013 -0.01 -0.013 -0.009 -0.013 -0.01 -0.013 -0.01 -0.013 -0.01 -0.013 -0.009 -0.011 -0.009 -0.013 -0.01 -0.012 -0.008 -0.728 -0.538 -0.012 -0.009 -0.014 -0.011 -0.014 -0.01 -0.015 -0.011 -0.014 -0.01c-0.26,-0.189 -0.522,-0.377 -0.785,-0.563l-0.014 -0.01 -0.015 -0.01 -0.014 -0.011 -0.014 -0.01 -0.015 -0.01 -0.011 -0.008 -0.011 -0.008 -0.011 -0.008 -0.012 -0.008 -0.011 -0.008 -0.011 -0.008 -0.011 -0.008c-0.211,-0.149 -0.42,-0.3 -0.632,-0.446l-0.011 -0.008 -0.024 -0.016 -0.003 -0.002c-0.475,-0.329 -0.951,-0.65 -1.431,-0.967l-0.024 -0.015 -0.024 -0.016 -0.011 -0.007 -0.011 -0.008c-0.2,-0.131 -0.402,-0.259 -0.604,-0.389l-0.011 -0.007 -0.011 -0.008 -0.011 -0.007 -0.011 -0.007 -0.012 -0.007 -0.011 -0.007 -0.011 -0.008 -0.011 -0.007 -0.016 -0.009 -0.014 -0.01 -0.016 -0.01 -0.015 -0.01 -0.015 -0.009c-0.267,-0.172 -0.538,-0.342 -0.807,-0.511l-0.015 -0.01 -0.015 -0.009 -0.016 -0.01 -0.014 -0.01 -0.016 -0.009 -0.015 -0.01 -0.012 -0.007 -0.011 -0.008 -0.012 -0.007 -0.655 -0.402 -0.012 -0.007 -0.011 -0.008 -0.012 -0.007 -0.012 -0.007 -0.011 -0.007 -0.017 -0.01 -0.017 -0.01 -0.016 -0.01c-0.302,-0.182 -0.605,-0.361 -0.909,-0.54l-0.017 -0.01 -0.017 -0.009 -0.016 -0.01 -0.017 -0.01 -0.016 -0.01 -0.017 -0.009 -0.01 -0.006 -0.01 -0.006 -0.01 -0.006 -0.01 -0.006 -0.01 -0.006c-0.187,-0.108 -0.371,-0.22 -0.559,-0.327l-0.01 -0.006 -0.01 -0.005 -0.01 -0.006 -0.024 -0.014 -0.026 -0.014c-0.51,-0.291 -1.022,-0.576 -1.536,-0.853l-0.026 -0.014c-0.2,-0.108 -0.401,-0.21 -0.602,-0.317l-0.01 -0.005 -0.011 -0.005 -0.01 -0.006 -0.011 -0.006 -0.01 -0.005 -0.01 -0.005 -0.017 -0.009 -0.018 -0.01 -0.017 -0.008 -0.018 -0.01 -0.017 -0.009c-0.331,-0.174 -0.663,-0.345 -0.995,-0.513l-0.017 -0.009 -0.017 -0.009 -0.009 -0.004 -0.673 -0.335 -0.019 -0.008c-0.361,-0.178 -0.724,-0.351 -1.088,-0.521l-0.018 -0.009 -0.018 -0.009 -0.019 -0.008 -0.018 -0.009 -0.01 -0.005 -0.01 -0.005 -0.01 -0.004 -0.01 -0.004 -0.019 -0.01 -0.01 -0.005c-0.181,-0.084 -0.363,-0.172 -0.544,-0.254l-0.01 -0.004 -0.01 -0.005 -0.026 -0.012c-0.548,-0.25 -1.099,-0.494 -1.652,-0.729l-0.027 -0.011 -0.008 -0.003 -0.008 -0.004 -0.009 -0.003 -0.008 -0.004 -0.008 -0.004 -0.008 -0.003c-0.131,-0.056 -0.263,-0.106 -0.393,-0.161l-0.008 -0.004 -0.009 -0.003 -0.017 -0.007 -0.008 -0.003 -0.008 -0.004 -0.009 -0.004 -0.008 -0.002 -0.009 -0.004 -0.008 -0.004 -0.008 -0.003 -0.02 -0.008 -0.02 -0.009c-0.397,-0.164 -0.795,-0.325 -1.196,-0.483l-0.02 -0.008 -0.02 -0.008 -0.01 -0.004 -0.012 -0.004 -0.01 -0.005 -0.012 -0.004 -0.01 -0.004c-0.192,-0.076 -0.383,-0.148 -0.576,-0.221l-0.011 -0.004 -0.011 -0.005 -0.011 -0.004 -0.011 -0.004 -0.011 -0.004 -0.011 -0.004c-0.4,-0.152 -0.801,-0.299 -1.204,-0.443l-0.02 -0.007 -0.02 -0.007 -0.02 -0.007 -0.567 -0.203 -0.029 -0.01c-0.596,-0.207 -1.194,-0.406 -1.796,-0.595l-0.006 -0.001 -0.006 -0.002 -0.006 -0.003 -0.006 -0.001 -0.006 -0.002 -0.006 -0.002c-0.107,-0.034 -0.214,-0.064 -0.322,-0.097l-0.006 -0.001 -0.006 -0.002 -0.006 -0.002 -0.006 -0.002 -0.023 -0.007 -0.023 -0.007 -0.023 -0.007 -0.024 -0.007c-0.458,-0.141 -0.916,-0.277 -1.377,-0.407l-0.023 -0.007 -0.632 -0.174 -0.021 -0.006 -0.021 -0.005c-0.419,-0.113 -0.837,-0.223 -1.257,-0.328l-0.021 -0.005 -0.021 -0.005 -0.017 -0.004c-0.191,-0.048 -0.381,-0.097 -0.573,-0.143l-0.029 -0.007c-0.604,-0.144 -1.21,-0.282 -1.818,-0.409l-0.03 -0.006 -0.308 -0.06 -0.025 -0.006 -0.025 -0.004c-0.51,-0.103 -1.023,-0.202 -1.538,-0.293l-0.026 -0.004 -0.01 -0.002 -0.6 -0.102 -0.012 -0.002 -0.023 -0.004c-0.451,-0.075 -0.903,-0.144 -1.356,-0.21l-0.022 -0.004 -0.023 -0.003 -0.55 -0.079 -0.001 0 -0.031 -0.004c-0.642,-0.087 -1.286,-0.166 -1.932,-0.233l-0.016 -0.002 -0.096 -0.008 -0.029 -0.003c-0.594,-0.061 -1.188,-0.11 -1.785,-0.153l-0.004 0 -0.029 -0.003 -0.617 -0.04 -0.022 -0.001 -0.022 -0.002 -0.022 -0.001c-0.428,-0.027 -0.854,-0.048 -1.282,-0.066l-0.022 -0.001 -0.022 -0.001 -0.022 -0.001 -0.002 0 -0.619 -0.024 -0.009 -0.001c-0.658,-0.022 -1.317,-0.034 -1.979,-0.034 -47.254,0 -85.561,52.025 -85.561,116.201 0,64.177 38.307,116.201 85.561,116.201 0.675,0 1.347,-0.013 2.018,-0.034l0.01 0 0.01 0 0.009 -0.001 0.01 0 0.499 -0.021 0.009 0 0.01 -0.001 0.01 0 0.009 0 0.009 -0.001 0.011 -0.001 0.009 0 0.009 0 0.022 -0.001 0.023 -0.001 0.022 -0.001c0.442,-0.018 0.884,-0.042 1.326,-0.069l0.001 0 0.021 -0.001 0.691 -0.048 0.023 -0.001 0.022 -0.002 0.023 -0.002c0.454,-0.034 0.909,-0.073 1.361,-0.118l0.009 0 0.009 -0.001 0.009 -0.001 0.009 -0.001 0.009 -0.001 0.009 -0.001 0.009 0 0.018 -0.002 0.009 -0.001 0.471 -0.045 0.009 -0.001 0.032 -0.004 0 0c0.643,-0.068 1.284,-0.144 1.924,-0.232l0.03 -0.004 0.176 -0.026 0.009 -0.001 0.028 -0.005c0.575,-0.08 1.149,-0.17 1.719,-0.266l0.028 -0.005 0.009 -0.002c0.187,-0.031 0.373,-0.066 0.56,-0.099l0.01 -0.002 0.009 -0.002 0.009 -0.001 0.01 -0.002 0.01 -0.002 0.021 -0.004 0.022 -0.004 0.021 -0.004c0.43,-0.077 0.857,-0.157 1.284,-0.244l0.021 -0.004 0.005 0 0.649 -0.135 0.023 -0.004 0.021 -0.005c0.453,-0.097 0.905,-0.199 1.355,-0.305l0.023 -0.005 0.008 -0.002 0.008 -0.002 0.008 -0.002 0.009 -0.002 0.008 -0.001 0.008 -0.003 0.008 -0.002 0.009 -0.001 0.008 -0.002 0.025 -0.006 0.008 -0.002 0.008 -0.002c0.124,-0.029 0.249,-0.056 0.372,-0.086l0.008 -0.002 0.008 -0.003 0.009 -0.001 0.008 -0.003 0.008 -0.001c0.626,-0.153 1.249,-0.316 1.87,-0.487l0.03 -0.008 0.387 -0.113 0.024 -0.006 0.024 -0.007 0.024 -0.007c0.478,-0.136 0.957,-0.277 1.434,-0.424l0.023 -0.007 0.006 -0.002 0.623 -0.198 0.02 -0.007 0.019 -0.006c0.402,-0.128 0.805,-0.263 1.206,-0.4l0.02 -0.006 0.01 -0.004 0.011 -0.003 0.01 -0.004 0.012 -0.004 0.01 -0.003 0.011 -0.004 0.567 -0.197 0.011 -0.003 0.011 -0.004 0.01 -0.004 0.011 -0.004 0.011 -0.004 0.02 -0.007 0.021 -0.007c0.415,-0.149 0.829,-0.3 1.242,-0.457l0.021 -0.008 0.02 -0.007 0.009 -0.003 0.008 -0.004 0.009 -0.003 0.017 -0.006 0.008 -0.003c0.149,-0.057 0.299,-0.109 0.448,-0.167l0.009 -0.004 0.008 -0.003 0.008 -0.003 0.009 -0.003 0.008 -0.004c0.592,-0.229 1.18,-0.467 1.767,-0.713l0.027 -0.012 0.009 -0.003c0.153,-0.064 0.304,-0.132 0.455,-0.198l0.01 -0.004 0.018 -0.008 0.008 -0.004 0.009 -0.003 0.009 -0.004 0.009 -0.004 0.009 -0.004 0.009 -0.004 0.009 -0.004 0.009 -0.003 0.009 -0.004 0.019 -0.009c0.388,-0.167 0.775,-0.336 1.16,-0.511l0.019 -0.008 0.019 -0.009 0.02 -0.009 0.011 -0.005c0.228,-0.104 0.455,-0.21 0.682,-0.316l0.012 -0.005 0.011 -0.005 0.011 -0.006 0.018 -0.008 0.018 -0.008 0.017 -0.008 0.018 -0.009c0.33,-0.155 0.659,-0.312 0.987,-0.472l0.018 -0.008 0.017 -0.009 0.017 -0.009 0.018 -0.008 0.011 -0.006c0.213,-0.104 0.428,-0.208 0.641,-0.315l0.011 -0.005 0.01 -0.006 0.011 -0.005 0.019 -0.01 0.02 -0.01 0.019 -0.01c0.382,-0.191 0.762,-0.389 1.142,-0.589l0.019 -0.01 0.019 -0.01 0.009 -0.005 0.009 -0.004 0.008 -0.005 0.009 -0.004 0.009 -0.005 0.009 -0.005 0.008 -0.004 0.009 -0.005 0.009 -0.004 0.044 -0.023 0.008 -0.005 0.403 -0.21 0.008 -0.005 0.009 -0.004 0.009 -0.005 0.026 -0.014c0.533,-0.287 1.064,-0.582 1.593,-0.884l0.026 -0.015 0.026 -0.015 0.01 -0.006 0.01 -0.006 0.011 -0.005c0.194,-0.111 0.386,-0.226 0.578,-0.339l0.01 -0.006 0.011 -0.006 0.01 -0.006 0.011 -0.006 0.01 -0.006 0.016 -0.01 0.017 -0.009 0.017 -0.01 0.017 -0.01c0.319,-0.186 0.638,-0.377 0.956,-0.569l0.017 -0.01 0.017 -0.01 0.016 -0.01c0.245,-0.148 0.489,-0.299 0.732,-0.45l0.016 -0.01 0.015 -0.01 0.016 -0.01 0.016 -0.009c0.287,-0.179 0.574,-0.362 0.86,-0.546l0.015 -0.01 0.016 -0.01 0.016 -0.01 0.016 -0.01 0.015 -0.01 0.012 -0.008 0.012 -0.007 0.011 -0.008c0.226,-0.145 0.453,-0.29 0.677,-0.438l0.012 -0.008 0.011 -0.008 0.012 -0.007 0.016 -0.011 0.016 -0.011 0.016 -0.01 0.016 -0.011c0.288,-0.189 0.574,-0.384 0.86,-0.58l0.015 -0.01 0.016 -0.012 0.016 -0.01 0.016 -0.011 0.016 -0.011 0.016 -0.011 0.016 -0.01 0.015 -0.011 0.032 -0.022 0.016 -0.011c0.289,-0.197 0.577,-0.396 0.864,-0.598l0.016 -0.012 0.016 -0.011 0.015 -0.01 0.016 -0.012c0.375,-0.264 0.749,-0.531 1.121,-0.803l0.019 -0.013 0.018 -0.014 0.019 -0.014 0.018 -0.013 0.012 -0.008c0.222,-0.163 0.441,-0.329 0.662,-0.495l0.011 -0.009 0.035 -0.026 0.011 -0.008 0.012 -0.009 0.014 -0.01 0.013 -0.011 0.015 -0.01 0.013 -0.011 0.014 -0.01 0.013 -0.01 0.014 -0.01 0.014 -0.011 0.014 -0.01c0.238,-0.179 0.476,-0.358 0.711,-0.54l0.013 -0.01 0.014 -0.01 0.013 -0.011 0.013 -0.01 0.013 -0.01 0.013 -0.01 0.013 -0.01c0.256,-0.197 0.511,-0.398 0.765,-0.599l0.012 -0.009 0.012 -0.01 0.012 -0.009 0.012 -0.01 0.012 -0.009 0.012 -0.01 0.012 -0.01 0.012 -0.009 0.012 -0.01 0.012 -0.009 0.539 -0.432 0.011 -0.01 0.013 -0.01 0.012 -0.009 0.011 -0.01 0.012 -0.01 0.012 -0.009 0.012 -0.01 0.012 -0.01 0.012 -0.009 0.014 -0.011 0.013 -0.011 0.013 -0.011 0.014 -0.011 0.013 -0.011 0.013 -0.01 0.014 -0.011c0.245,-0.2 0.491,-0.398 0.735,-0.601l0.013 -0.011 0.013 -0.011 0.012 -0.009 0.011 -0.01 0.012 -0.01 0.012 -0.01 0.542 -0.46 0.012 -0.01 0.011 -0.009 0.012 -0.01 0.011 -0.01 0.012 -0.01 0.011 -0.01 0.012 -0.009 0.011 -0.01 0.012 -0.01 0.011 -0.01 0.012 -0.01 0.011 -0.009 0.012 -0.01 0.022 -0.019 0.022 -0.019 0.022 -0.018 0.021 -0.019 0.022 -0.018 0.022 -0.019 0.022 -0.019 0.022 -0.018c0.37,-0.317 0.739,-0.637 1.105,-0.962l0.022 -0.02 0.021 -0.019 0.022 -0.018 0.022 -0.02 0.021 -0.019 0.013 -0.012 0.013 -0.011 0.013 -0.012 0.013 -0.012 0.026 -0.023 0.013 -0.011c0.237,-0.208 0.472,-0.419 0.707,-0.632l0.013 -0.011 0.013 -0.012 0.013 -0.012 0.011 -0.011 0.013 -0.011 0.012 -0.011c0.216,-0.197 0.43,-0.398 0.645,-0.598l0.012 -0.011 0.012 -0.011 0.012 -0.011 0.011 -0.011 0.013 -0.011 0.012 -0.012 0.011 -0.011 0.012 -0.011 0.012 -0.011 0.012 -0.011 0.012 -0.011 0.012 -0.011 0.012 -0.012 0.012 -0.011 0.023 -0.022 0.012 -0.011c0.174,-0.162 0.349,-0.326 0.522,-0.491l0.012 -0.011 0.012 -0.012 0.012 -0.011 0.011 -0.011 0.012 -0.011 0.012 -0.011 0.012 -0.012 0.012 -0.011 0.011 -0.011 0.012 -0.011 0.013 -0.012 0.012 -0.012 0.012 -0.012 0.013 -0.012c0.23,-0.219 0.459,-0.44 0.688,-0.663l0.012 -0.012 0.013 -0.013 0.011 -0.011 0.013 -0.012 0.011 -0.011 0.011 -0.01 0.011 -0.012 0.011 -0.01 0.011 -0.011 0.011 -0.011 0.582 -0.576 0.011 -0.011 0.01 -0.011 0.012 -0.011 0.01 -0.011 0.012 -0.011 0.012 -0.012 0.013 -0.013 0.012 -0.013 0.013 -0.012 0.013 -0.012 0.012 -0.013 0.013 -0.013 0.013 -0.012 0.012 -0.013 0.025 -0.025 0.013 -0.012c0.201,-0.202 0.404,-0.403 0.603,-0.607l0.013 -0.013 0.013 -0.013 0.012 -0.012 0.012 -0.013 0.011 -0.01 0.009 -0.01 0.447 -0.466 0.009 -0.01 0.02 -0.02 0.01 -0.011 0.009 -0.01 0.01 -0.01 0.01 -0.01 0.009 -0.01 0.01 -0.01 0.01 -0.01 0.01 -0.01 0.009 -0.01 0.01 -0.011 0.01 -0.01 0.01 -0.01 0.009 -0.01 0.025 -0.026 0.025 -0.026 0.024 -0.026 0.025 -0.025 0.025 -0.026 0.049 -0.051 0.025 -0.026c0.385,-0.405 0.768,-0.813 1.149,-1.226l0.024 -0.027 0.048 -0.052 0.025 -0.027 0.024 -0.027 0.024 -0.026 0.024 -0.026 0.024 -0.027 0.025 -0.026 0.008 -0.009 0.008 -0.009 0.008 -0.009 0.008 -0.009 0.008 -0.009 0.008 -0.008 0.008 -0.009 0.009 -0.009 0.007 -0.008 0.009 -0.009 0.008 -0.009 0.008 -0.009 0.008 -0.009 0.008 -0.009 0.008 -0.009 0.008 -0.008 0.008 -0.009 0.009 -0.009 0.007 -0.009 0.009 -0.008 0.008 -0.009 0.016 -0.018 0.008 -0.009 0.016 -0.017 0.008 -0.009 0.008 -0.009 0.243 -0.265 0.008 -0.009 0.008 -0.009 0.008 -0.009 0.008 -0.009 0.008 -0.009 0.008 -0.008 0.014 -0.016 0.013 -0.015 0.014 -0.015 0.014 -0.015c0.233,-0.259 0.465,-0.523 0.696,-0.786l0.013 -0.015 0.014 -0.015 0.013 -0.016 0.014 -0.016 0.014 -0.015 0.013 -0.015 0.014 -0.016 0.013 -0.016 0.014 -0.015 0.521 -0.598 0.013 -0.016 0.014 -0.016 0.013 -0.016 0.014 -0.015 0.014 -0.016 0.013 -0.016c0.245,-0.284 0.487,-0.568 0.73,-0.856l0.013 -0.016 0.014 -0.016 0.013 -0.016 0.013 -0.016 0.454 -0.547 0.049 -0.058 0.048 -0.059 0.049 -0.059 0.048 -0.058c0.339,-0.411 0.675,-0.826 1.008,-1.244l0.047 -0.06 0.048 -0.06 0.047 -0.059 0.048 -0.061 0.047 -0.059 0.047 -0.06 0.048 -0.06 0.047 -0.06 0.048 -0.061 0.047 -0.06c0.362,-0.462 0.721,-0.928 1.078,-1.398l0.047 -0.061 0.046 -0.061 0.047 -0.062 0.046 -0.061 0.047 -0.062 0.046 -0.062 0.288 -0.381 0.014 -0.019 0.014 -0.018 0.014 -0.019c0.242,-0.325 0.48,-0.652 0.719,-0.981l0.013 -0.019 0.014 -0.018 0.013 -0.019 0.015 -0.019 0.013 -0.019 0.014 -0.02 0.013 -0.019 0.015 -0.018 0.013 -0.019 0.385 -0.535 0.014 -0.02 0.013 -0.019 0.015 -0.02 0.013 -0.019 0.014 -0.02c0.264,-0.37 0.526,-0.741 0.786,-1.116l0.001 -0.001 0.014 -0.02 0.014 -0.02 0.229 -0.334 0.046 -0.068 0.047 -0.067 0.046 -0.068 0.047 -0.068 0.046 -0.068 0.047 -0.068 0.046 -0.068 0.046 -0.068c0.309,-0.453 0.613,-0.91 0.916,-1.371l0.046 -0.069 0.045 -0.069 0.046 -0.07 0.044 -0.069 0.046 -0.069 0.045 -0.069 0.045 -0.07c0.362,-0.555 0.718,-1.115 1.072,-1.679l0.044 -0.071 0.044 -0.071 0.044 -0.07 0.044 -0.071 0.044 -0.071 0.245 -0.393 0.013 -0.021 0.013 -0.021 0.013 -0.022 0.013 -0.021 0.013 -0.021 0.013 -0.021c0.236,-0.384 0.468,-0.77 0.7,-1.158l0.013 -0.022 0.038 -0.064 0.279 -0.469 0.013 -0.022 0.013 -0.023 0.014 -0.023 0.014 -0.022 0.013 -0.023 0.013 -0.023 0.027 -0.045 0.013 -0.023c0.235,-0.4 0.47,-0.802 0.701,-1.206l0.001 -0.002 0.013 -0.023 0.013 -0.023 0.094 -0.165 0.043 -0.077 0.044 -0.076 0.26 -0.462 0.043 -0.077 0.043 -0.077c0.274,-0.488 0.544,-0.979 0.812,-1.474l0.042 -0.078 0.042 -0.078 0.042 -0.078 0.042 -0.078 0.042 -0.079 0.042 -0.078 0.042 -0.078 0.042 -0.079 0.042 -0.078c0.307,-0.576 0.609,-1.155 0.908,-1.739l0.041 -0.08 0.041 -0.079 0.041 -0.08 0.04 -0.08 0.175 -0.34 0.012 -0.025 0.013 -0.026 0.012 -0.024 0.013 -0.025 0.013 -0.026c0.218,-0.433 0.434,-0.868 0.648,-1.306l0.012 -0.025 0.012 -0.025 0.013 -0.026 0.012 -0.025 0.012 -0.025 0.012 -0.025 0.013 -0.026 0.139 -0.285 0.053 -0.111 0.054 -0.11 0.053 -0.111c0.265,-0.553 0.528,-1.109 0.787,-1.669l0.052 -0.112 0.051 -0.112 0.052 -0.112 0.051 -0.112c0.326,-0.711 0.646,-1.427 0.961,-2.148l0.049 -0.114 0.05 -0.114 0.05 -0.114c0.28,-0.647 0.555,-1.297 0.826,-1.952l0.048 -0.115 0.048 -0.116 0.047 -0.116 0.13 -0.314 0.011 -0.027 0.011 -0.028 0.011 -0.027 0.012 -0.027 0.021 -0.054 0.012 -0.027c0.18,-0.443 0.358,-0.887 0.533,-1.335l0.011 -0.027 0.011 -0.027 0.01 -0.028 0.011 -0.027 0.011 -0.028 0.011 -0.027 0.01 -0.027 0.011 -0.028 0.104 -0.268 0.046 -0.118 0.046 -0.118c0.274,-0.708 0.542,-1.42 0.805,-2.136l0.044 -0.119 0.044 -0.12c0.582,-1.593 1.137,-3.207 1.668,-4.841l0.039 -0.123 0.04 -0.123 0.103 -0.318 0.009 -0.029 0.009 -0.029 0.009 -0.03 0.01 -0.029c0.173,-0.543 0.342,-1.086 0.51,-1.633l0.008 -0.029 0.009 -0.03 0.009 -0.029 0.009 -0.029 0.067 -0.223 0.029 -0.095 0.028 -0.095 0.029 -0.096 0.028 -0.095 0.029 -0.095c0.18,-0.604 0.357,-1.21 0.53,-1.819l0.027 -0.096 0.027 -0.096 0.027 -0.096 0.028 -0.097 0.081 -0.289 0.027 -0.096 0.026 -0.097 0.027 -0.096 0.027 -0.097 0.027 -0.097c0.124,-0.451 0.246,-0.903 0.366,-1.356l0.026 -0.097 0.025 -0.097 0.278 -1.073 0.025 -0.097c0.519,1.279 1.061,2.54 1.623,3.78l0.034 0.074c0.552,1.213 1.125,2.408 1.717,3.582l0.07 0.138c0.584,1.151 1.186,2.282 1.807,3.393l0.095 0.17c0.623,1.107 1.264,2.194 1.923,3.26l0.082 0.133c0.658,1.061 1.334,2.101 2.027,3.118l0.114 0.167c0.677,0.989 1.371,1.956 2.079,2.902l0.182 0.243c0.223,0.295 0.447,0.588 0.673,0.878l0.192 0.245c0.421,0.537 0.846,1.066 1.277,1.587l0.211 0.257c0.231,0.277 0.462,0.551 0.696,0.824l0.215 0.249c0.447,0.517 0.899,1.027 1.356,1.528l0.174 0.191c0.226,0.246 0.454,0.49 0.683,0.733l0.375 0.393c0.36,0.376 0.724,0.746 1.09,1.112 0.142,0.143 0.284,0.287 0.428,0.427 0.213,0.211 0.43,0.418 0.645,0.625l0.437 0.414c0.268,0.252 0.537,0.503 0.809,0.75 0.254,0.232 0.509,0.463 0.766,0.69 0.202,0.179 0.406,0.354 0.609,0.529l0.512 0.438c0.206,0.173 0.411,0.348 0.618,0.519 0.326,0.268 0.653,0.534 0.983,0.795 0.199,0.157 0.399,0.31 0.599,0.465l0.573 0.438 0.615 0.461c0.26,0.192 0.523,0.38 0.785,0.567 0.265,0.188 0.531,0.374 0.798,0.558l0.687 0.467 0.546 0.362c0.333,0.217 0.666,0.43 1.002,0.64l0.511 0.314c0.298,0.181 0.596,0.361 0.896,0.536l0.497 0.288c0.318,0.181 0.636,0.359 0.955,0.534l0.542 0.293c0.332,0.177 0.666,0.351 1.001,0.521l0.482 0.241c0.328,0.162 0.657,0.321 0.987,0.476l0.347 0.164c0.419,0.193 0.84,0.379 1.262,0.561l0.447 0.189c0.339,0.142 0.68,0.281 1.021,0.416l0.36 0.143c0.437,0.168 0.877,0.33 1.317,0.487l0.403 0.14c0.347,0.121 0.696,0.236 1.045,0.349l0.401 0.13c0.441,0.138 0.883,0.269 1.328,0.395l0.401 0.111c0.363,0.1 0.728,0.195 1.093,0.286l0.382 0.096c0.461,0.111 0.923,0.216 1.387,0.314l0.328 0.067c0.394,0.08 0.789,0.155 1.186,0.226l0.347 0.062c0.484,0.083 0.97,0.159 1.457,0.228l0.222 0.029c0.416,0.056 0.835,0.107 1.254,0.152l0.412 0.044c0.485,0.049 0.97,0.092 1.457,0.126l0.151 0.01c0.453,0.03 0.909,0.052 1.366,0.07l0.364 0.013c0.504,0.017 1.009,0.027 1.516,0.027 36.128,0 65.416,-40.077 65.416,-89.514 0,-49.436 -29.288,-89.513 -65.416,-89.513 -0.507,0 -1.011,0.011 -1.516,0.027l-0.403 0.015c-0.404,0.016 -0.807,0.036 -1.209,0.062l-0.34 0.021c-0.493,0.036 -0.983,0.078 -1.472,0.128l-0.333 0.037c-0.404,0.045 -0.807,0.094 -1.208,0.147l-0.379 0.052c-0.469,0.067 -0.938,0.14 -1.403,0.22l-0.083 0.014c-0.487,0.085 -0.973,0.178 -1.457,0.278l-0.413 0.088c-0.364,0.078 -0.728,0.161 -1.09,0.247l-0.415 0.099c-0.464,0.115 -0.928,0.236 -1.39,0.365l-0.316 0.091c-0.372,0.107 -0.744,0.217 -1.113,0.332l-0.454 0.143c-0.399,0.128 -0.797,0.26 -1.193,0.399l-0.201 0.068c-0.464,0.164 -0.925,0.336 -1.385,0.513l-0.38 0.15c-0.357,0.14 -0.713,0.285 -1.067,0.434l-0.366 0.155c-0.452,0.193 -0.902,0.392 -1.349,0.598l-0.228 0.108c-0.381,0.178 -0.759,0.361 -1.136,0.548l-0.398 0.199c-0.36,0.183 -0.72,0.37 -1.078,0.562l-0.28 0.148c-0.436,0.236 -0.87,0.479 -1.301,0.728l-0.32 0.186c-0.347,0.204 -0.694,0.411 -1.037,0.622l-0.351 0.215c-0.426,0.266 -0.852,0.536 -1.273,0.813l-0.149 0.1c-0.372,0.247 -0.741,0.499 -1.109,0.754l-0.407 0.287c-0.311,0.22 -0.621,0.445 -0.93,0.671l-0.349 0.257c-0.397,0.297 -0.793,0.598 -1.186,0.906l-0.339 0.27c-0.295,0.234 -0.588,0.472 -0.88,0.713l-0.405 0.335c-0.347,0.291 -0.693,0.585 -1.037,0.885l-0.196 0.172c-0.374,0.329 -0.745,0.663 -1.113,1.002l-0.333 0.309c-0.293,0.273 -0.583,0.549 -0.872,0.828l-0.332 0.319c-0.367,0.359 -0.732,0.724 -1.094,1.093l-0.269 0.278c-0.287,0.296 -0.572,0.595 -0.855,0.897l-0.375 0.402c-0.293,0.318 -0.584,0.64 -0.874,0.964l-0.205 0.228c-0.349,0.395 -0.695,0.796 -1.038,1.2l-0.338 0.404c-0.25,0.299 -0.499,0.602 -0.746,0.906l-0.321 0.396c-0.336,0.42 -0.67,0.844 -0.999,1.273l-0.205 0.271c-0.268,0.352 -0.534,0.706 -0.797,1.064l-0.333 0.456c-0.244,0.337 -0.486,0.676 -0.727,1.019l-0.258 0.365c-0.306,0.439 -0.608,0.885 -0.907,1.333l-0.292 0.443c-0.233,0.353 -0.464,0.708 -0.691,1.066l-0.266 0.417c-0.296,0.47 -0.59,0.944 -0.878,1.422l-0.184 0.31c-0.236,0.394 -0.47,0.791 -0.701,1.19l-0.289 0.505c-0.214,0.374 -0.424,0.751 -0.633,1.129l-0.227 0.41c-0.267,0.491 -0.531,0.986 -0.791,1.485l-0.245 0.476c-0.194,0.377 -0.387,0.757 -0.577,1.138l-0.262 0.528c-0.249,0.509 -0.496,1.019 -0.738,1.535l-0.012 0.024 -0.009 0.02 -0.057 0.126c-0.231,0.493 -0.457,0.991 -0.681,1.491l-0.224 0.505c-0.178,0.407 -0.354,0.815 -0.529,1.225l-0.208 0.491c-0.223,0.533 -0.442,1.069 -0.657,1.609l-0.202 0.515c-0.153,0.389 -0.303,0.778 -0.452,1.171l-0.245 0.651c-0.169,0.454 -0.334,0.911 -0.497,1.369l-0.119 0.331 -0.687 -2.201z"/>
   </g>
   <ellipse class="fil1" cx="560.088" cy="452.519" rx="28.817" ry="39.138"/>
   <polygon class="fil0" points="688.922,667.814 623.541,677.332 673.593,683.509 "/>
   <polygon class="fil0" points="545.265,675.657 600.326,677.332 554.356,694.415 "/>
   <ellipse class="fil1" cx="698.214" cy="447.075" rx="24.629" ry="33.694"/>
  </g>
  <path class="fil2" d="M1309.99 686.188l320.556 -383.303 -275.385 0c-19.317,0 -33.842,-4.212 -43.574,-12.782 -9.876,-8.569 -14.67,-19.753 -14.67,-33.697 0,-14.379 4.794,-26.144 14.67,-35.149 9.732,-8.86 24.257,-13.363 43.574,-13.363l354.98 0c45.898,0 68.846,21.496 68.846,64.344 0,20.479 -3.776,36.747 -11.474,48.948 -7.698,12.2 -23.094,31.954 -46.333,59.26l-299.641 356.432 330.288 0c19.463,0 34.132,4.067 43.718,12.201 9.732,7.988 14.525,19.317 14.525,33.842 0,14.96 -4.793,26.871 -14.525,35.731 -9.586,8.86 -24.255,13.217 -43.718,13.217l-405.235 0c-27.452,0 -48.222,-6.246 -62.02,-18.591 -13.944,-12.346 -20.916,-28.759 -20.916,-49.529 0,-7.118 1.163,-13.653 3.341,-19.608 2.324,-5.955 5.374,-11.62 9.151,-16.849 3.921,-5.228 9.15,-11.91 15.977,-19.898 6.826,-8.134 12.781,-15.251 17.865,-21.206zm1006.406 -79.885c0,34.713 -5.374,66.522 -16.122,95.717 -10.894,29.194 -26.435,54.322 -46.915,75.236 -20.334,21.061 -44.881,37.038 -73.204,48.222 -28.322,11.184 -60.277,16.848 -95.716,16.848 -35.295,0 -66.959,-5.664 -94.991,-16.993 -28.032,-11.329 -52.434,-27.597 -73.058,-48.803 -20.48,-21.06 -36.167,-46.042 -46.769,-74.801 -10.603,-28.904 -15.977,-60.713 -15.977,-95.572 0,-35.149 5.374,-67.393 16.122,-96.588 10.893,-29.194 26.289,-54.177 46.479,-74.947 20.189,-20.624 44.59,-36.602 73.203,-47.785 28.613,-11.184 60.277,-16.849 94.991,-16.849 35.149,0 67.103,5.665 95.716,16.994 28.614,11.329 53.16,27.596 73.64,48.657 20.48,20.916 36.021,45.898 46.624,74.947 10.603,28.904 15.977,60.857 15.977,95.717zm-116.778 0c0,-47.35 -10.457,-84.097 -31.228,-110.532 -20.915,-26.29 -48.802,-39.507 -83.951,-39.507 -22.804,0 -42.702,5.81 -59.987,17.575 -17.284,11.765 -30.647,29.194 -39.942,52.143 -9.441,22.948 -14.089,49.819 -14.089,80.321 0,30.356 4.648,56.936 13.798,79.594 9.296,22.658 22.368,40.088 39.507,52.143 17.139,12.056 37.473,18.011 60.713,18.011 35.149,0 63.036,-13.218 83.951,-39.797 20.771,-26.435 31.228,-63.182 31.228,-109.951zm313.44 -172.116l0 14.089c20.48,-27.016 42.848,-46.77 67.103,-59.406 24.257,-12.636 52.144,-18.882 83.662,-18.882 30.647,0 57.953,6.682 82.209,20.044 24.111,13.217 42.121,32.099 54.031,56.5 7.698,14.234 12.637,29.485 14.96,46.043 2.179,16.413 3.341,37.328 3.341,62.892l0 216.27c0,23.24 -5.374,40.814 -15.977,52.725 -10.603,11.909 -24.546,17.864 -41.54,17.864 -17.284,0 -31.373,-6.1 -42.266,-18.3 -10.748,-12.201 -16.123,-29.631 -16.123,-52.289l0 -193.757c0,-38.2 -5.374,-67.539 -15.977,-87.874 -10.603,-20.189 -31.809,-30.356 -63.618,-30.356 -20.624,0 -39.506,6.1 -56.645,18.446 -16.994,12.346 -29.485,29.34 -37.328,50.981 -5.665,17.284 -8.57,49.529 -8.57,97.024l0 145.536c0,23.53 -5.519,41.105 -16.413,52.87 -10.893,11.764 -24.982,17.719 -42.121,17.719 -16.703,0 -30.501,-6.1 -41.25,-18.3 -10.748,-12.201 -16.122,-29.631 -16.122,-52.289l0 -335.807c0,-22.078 4.793,-38.635 14.38,-49.529 9.731,-10.894 22.803,-16.413 39.506,-16.413 10.168,0 19.463,2.469 27.597,7.263 8.279,4.793 14.815,12.055 19.754,21.641 4.938,9.586 7.407,21.496 7.407,35.295zm745.255 200.729l-227.31 0c0.291,26.435 5.665,49.674 15.977,69.863 10.313,20.189 24.111,35.295 41.25,45.462 17.139,10.312 36.166,15.396 56.791,15.396 13.944,0 26.58,-1.598 38.055,-4.938 11.619,-3.196 22.658,-8.279 33.406,-15.251 10.893,-6.972 20.77,-14.38 29.775,-22.368 9.151,-7.988 20.916,-18.737 35.44,-32.389 5.955,-5.085 14.38,-7.699 25.418,-7.699 11.91,0 21.641,3.341 29.049,9.877 7.262,6.391 11.039,15.686 11.039,27.597 0,10.457 -4.212,22.658 -12.346,36.747 -8.279,13.943 -20.625,27.451 -37.328,40.233 -16.558,12.927 -37.328,23.675 -62.456,32.099 -25.127,8.57 -54.031,12.781 -86.566,12.781 -74.656,0 -132.609,-21.35 -174.004,-63.907 -41.395,-42.557 -62.02,-100.22 -62.02,-173.133 0,-34.278 5.084,-66.232 15.251,-95.572 10.167,-29.339 25.127,-54.467 44.591,-75.527 19.608,-20.916 43.718,-37.038 72.331,-48.222 28.614,-11.184 60.423,-16.849 95.282,-16.849 45.462,0 84.387,9.587 116.777,28.759 32.535,19.173 56.791,43.864 73.058,74.366 16.122,30.357 24.257,61.294 24.257,92.812 0,29.194 -8.425,48.222 -25.128,56.936 -16.703,8.57 -40.233,12.927 -70.589,12.927zm-227.31 -66.232l210.606 0c-2.759,-39.652 -13.507,-69.282 -32.099,-89.035 -18.591,-19.608 -42.993,-29.485 -73.349,-29.485 -29.049,0 -52.724,10.021 -71.315,29.92 -18.592,20.044 -29.921,49.529 -33.843,88.6z"/>
 </g>
</svg>

