<svg xmlns="http://www.w3.org/2000/svg" xml:space="preserve" version="1.1" style="shape-rendering:geometricPrecision; text-rendering:geometricPrecision; image-rendering:optimizeQuality; fill-rule:evenodd; clip-rule:evenodd"
viewBox="0 0 400 200"
 xmlns:xlink="http://www.w3.org/1999/xlink"
 xmlns:xodm="http://www.corel.com/coreldraw/odm/2003">
 <defs>
  <style type="text/css">
   <![CDATA[
    .fil0 {fill:#3362A5}
   ]]>
  </style>
 </defs>
 <g id="Layer_x0020_1">
  <metadata id="CorelCorpID_0Corel-Layer"/>
  <path class="fil0" d="M121.276 107.895c0.104,2.401 0.805,4.122 2.103,5.166 1.298,1.041 3.518,1.564 6.659,1.564 1.065,0 2.324,-0.172 3.779,-0.513 1.453,-0.343 2.465,-0.65 3.037,-0.919l1.479 0 0 9.607c-1.451,0.313 -3.023,0.592 -4.718,0.836 -1.697,0.242 -4.291,0.364 -7.786,0.364 -3.082,0 -5.768,-0.358 -8.059,-1.07 -2.29,-0.716 -4.201,-1.727 -5.727,-3.033 -1.501,-1.284 -2.628,-2.798 -3.379,-4.539 -0.753,-1.744 -1.192,-3.68 -1.32,-5.811 -8.59,-0.465 -15.296,-3.198 -20.116,-8.201 -4.819,-5.003 -7.228,-11.7 -7.228,-20.093 0,-8.781 2.634,-15.722 7.908,-20.825 5.271,-5.1 12.547,-7.652 21.824,-7.652 9.253,0 16.529,2.552 21.826,7.652 5.298,5.103 7.947,12.044 7.947,20.825 0,6.484 -1.552,12.081 -4.653,16.789 -3.1,4.71 -7.627,7.993 -13.576,9.853zm-1.522 -12.917c1.444,-1.658 2.515,-3.615 3.21,-5.874 0.696,-2.256 1.046,-4.909 1.046,-7.961 0,-3.269 -0.4,-6.05 -1.2,-8.345 -0.8,-2.293 -1.843,-4.146 -3.133,-5.562 -1.317,-1.466 -2.833,-2.526 -4.548,-3.185 -1.715,-0.659 -3.501,-0.988 -5.357,-0.988 -1.883,0 -3.657,0.317 -5.322,0.952 -1.664,0.635 -3.192,1.682 -4.583,3.147 -1.29,1.367 -2.342,3.251 -3.154,5.654 -0.813,2.405 -1.218,5.192 -1.218,8.364 0,3.247 0.392,6.01 1.18,8.29 0.785,2.284 1.824,4.143 3.114,5.581 1.291,1.441 2.798,2.503 4.527,3.186 1.728,0.684 3.546,1.024 5.456,1.024 1.909,0 3.726,-0.346 5.455,-1.042 1.728,-0.696 3.237,-1.776 4.527,-3.241z"/>
  <polygon class="fil0" points="169.309,100.642 146.717,100.642 146.717,94.197 153.033,94.197 153.033,70.759 146.717,70.759 146.717,64.314 169.309,64.314 169.309,70.759 162.994,70.759 162.994,94.197 169.309,94.197 "/>
  <path class="fil0" d="M208.194 89.2c0,3.584 -1.609,6.495 -4.827,8.734 -3.217,2.24 -7.586,3.359 -13.106,3.359 -3.192,0 -5.974,-0.264 -8.347,-0.793 -2.372,-0.53 -4.592,-1.2 -6.663,-2.015l0 -8.715 1.087 0c2.053,1.549 4.352,2.739 6.897,3.57 2.544,0.832 4.989,1.248 7.336,1.248 0.604,0 1.398,-0.049 2.382,-0.147 0.983,-0.098 1.785,-0.261 2.406,-0.491 0.759,-0.293 1.384,-0.662 1.876,-1.103 0.492,-0.442 0.738,-1.095 0.738,-1.962 0,-0.797 -0.358,-1.485 -1.073,-2.064 -0.716,-0.577 -1.762,-1.022 -3.14,-1.331 -1.448,-0.326 -2.977,-0.63 -4.588,-0.916 -1.612,-0.284 -3.123,-0.647 -4.536,-1.087 -3.24,-0.993 -5.571,-2.341 -6.992,-4.043 -1.422,-1.702 -2.132,-3.815 -2.132,-6.34 0,-3.387 1.608,-6.151 4.826,-8.294 3.217,-2.141 7.354,-3.212 12.409,-3.212 2.536,0 5.043,0.232 7.519,0.695 2.476,0.465 4.619,1.045 6.431,1.744l0 8.368 -1.061 0c-1.554,-1.165 -3.456,-2.139 -5.707,-2.925 -2.252,-0.784 -4.551,-1.177 -6.897,-1.177 -0.829,0 -1.653,0.054 -2.473,0.159 -0.82,0.106 -1.608,0.304 -2.367,0.596 -0.673,0.245 -1.251,0.614 -1.735,1.108 -0.483,0.496 -0.724,1.06 -0.724,1.693 0,0.961 0.388,1.699 1.163,2.211 0.775,0.513 2.24,0.981 4.395,1.404 1.412,0.277 2.769,0.546 4.07,0.807 1.301,0.26 2.701,0.619 4.201,1.074 2.945,0.912 5.12,2.155 6.525,3.726 1.404,1.572 2.107,3.611 2.107,6.119z"/>
  <path class="fil0" d="M169.062 115.386c0,1.435 -0.252,2.836 -0.755,4.207 -0.503,1.372 -1.222,2.523 -2.157,3.455 -1.28,1.266 -2.708,2.218 -4.283,2.865 -1.575,0.647 -3.535,0.968 -5.879,0.968l-5.155 0 0 10.482 -8.268 0 0 -32.096 13.626 0c2.041,0 3.762,0.174 5.164,0.529 1.401,0.349 2.641,0.878 3.719,1.581 1.293,0.848 2.281,1.93 2.964,3.251 0.683,1.32 1.024,2.907 1.024,4.758zm-8.594 0.22c0,-0.895 -0.243,-1.667 -0.731,-2.313 -0.488,-0.645 -1.054,-1.097 -1.699,-1.353 -0.86,-0.342 -1.699,-0.529 -2.516,-0.566 -0.818,-0.034 -1.908,-0.053 -3.269,-0.053l-1.42 0 0 9.505 2.366 0c1.405,0 2.563,-0.085 3.473,-0.256 0.91,-0.171 1.675,-0.511 2.291,-1.021 0.53,-0.456 0.914,-0.997 1.151,-1.632 0.236,-0.631 0.354,-1.403 0.354,-2.311z"/>
  <path class="fil0" d="M191.618 120.631l-0.689 0c-0.329,-0.108 -0.86,-0.189 -1.592,-0.244 -0.731,-0.053 -1.341,-0.081 -1.828,-0.081 -1.104,0 -2.079,0.073 -2.925,0.215 -0.847,0.142 -1.757,0.385 -2.732,0.729l0 16.113 -7.812 0 0 -24.218 7.812 0 0 3.555c1.706,-1.464 3.19,-2.425 4.453,-2.876 1.262,-0.452 2.423,-0.679 3.485,-0.679 0.272,0 0.58,0.007 0.924,0.02 0.343,0.016 0.646,0.036 0.904,0.065l0 7.401z"/>
  <path class="fil0" d="M220.293 125.266c0,3.989 -1.159,7.133 -3.479,9.432 -2.319,2.299 -5.576,3.446 -9.769,3.446 -4.194,0 -7.451,-1.147 -9.77,-3.446 -2.319,-2.299 -3.479,-5.443 -3.479,-9.432 0,-4.02 1.167,-7.176 3.5,-9.467 2.334,-2.291 5.584,-3.436 9.749,-3.436 4.222,0 7.486,1.151 9.791,3.458 2.305,2.304 3.457,5.453 3.457,9.445zm-9.523 5.914c0.504,-0.621 0.884,-1.369 1.136,-2.242 0.252,-0.873 0.38,-2.086 0.38,-3.632 0,-1.428 -0.131,-2.628 -0.39,-3.597 -0.26,-0.966 -0.622,-1.739 -1.084,-2.317 -0.461,-0.592 -1.018,-1.011 -1.667,-1.257 -0.65,-0.247 -1.35,-0.368 -2.1,-0.368 -0.751,0 -1.419,0.101 -2.003,0.303 -0.585,0.201 -1.145,0.608 -1.679,1.214 -0.477,0.562 -0.856,1.335 -1.137,2.32 -0.282,0.98 -0.422,2.217 -0.422,3.702 0,1.331 0.122,2.482 0.368,3.459 0.245,0.975 0.607,1.758 1.083,2.35 0.461,0.563 1.014,0.974 1.657,1.235 0.642,0.26 1.374,0.391 2.198,0.391 0.707,0 1.382,-0.118 2.024,-0.359 0.643,-0.235 1.188,-0.639 1.636,-1.202z"/>
  <path class="fil0" d="M235.919 137.788c0,2.73 -0.841,4.861 -2.519,6.395 -1.678,1.53 -3.838,2.295 -6.477,2.295 -1.406,0 -2.687,-0.061 -3.841,-0.186 -1.156,-0.124 -1.998,-0.25 -2.529,-0.38l0 -5.619 0.597 0c0.427,0.144 0.959,0.266 1.6,0.37 0.64,0.1 1.144,0.151 1.515,0.151 1.479,0 2.488,-0.444 3.029,-1.333 0.541,-0.889 0.812,-2.35 0.812,-4.384l0 -16.679 -4.623 0 0 -5.273 12.436 0 0 24.643zm0 -28.095l-8.334 0 0 -5.859 8.334 0 0 5.859z"/>
  <path class="fil0" d="M266.615 126.686l-17.773 0c0.115,1.916 0.838,3.383 2.169,4.398 1.328,1.018 3.287,1.526 5.875,1.526 1.64,0 3.229,-0.297 4.767,-0.888 1.538,-0.593 2.753,-1.232 3.644,-1.911l0.863 0 0 6.205c-1.753,0.704 -3.403,1.211 -4.953,1.526 -1.55,0.314 -3.267,0.472 -5.147,0.472 -4.852,0 -8.571,-1.094 -11.155,-3.282 -2.584,-2.187 -3.876,-5.304 -3.876,-9.348 0,-4.004 1.225,-7.174 3.672,-9.513 2.448,-2.338 5.805,-3.508 10.069,-3.508 3.935,0 6.891,0.997 8.873,2.993 1.982,1.996 2.972,4.864 2.972,8.607l0 2.723zm-7.813 -4.557c-0.042,-1.642 -0.441,-2.877 -1.195,-3.706 -0.756,-0.827 -1.931,-1.242 -3.528,-1.242 -1.481,0 -2.7,0.392 -3.655,1.176 -0.956,0.785 -1.488,2.042 -1.602,3.772l9.98 0z"/>
  <path class="fil0" d="M284.285 138.014c-2.112,0 -4.038,-0.252 -5.784,-0.753 -1.744,-0.504 -3.262,-1.279 -4.554,-2.329 -1.277,-1.048 -2.268,-2.37 -2.972,-3.965 -0.704,-1.596 -1.056,-3.463 -1.056,-5.606 0,-2.256 0.377,-4.203 1.132,-5.841 0.752,-1.637 1.804,-2.995 3.155,-4.073 1.306,-1.021 2.811,-1.77 4.521,-2.242 1.709,-0.476 3.483,-0.712 5.32,-0.712 1.652,0 3.173,0.179 4.565,0.538 1.395,0.357 2.692,0.823 3.899,1.395l0 6.596 -1.098 0c-0.303,-0.256 -0.667,-0.558 -1.09,-0.9 -0.423,-0.341 -0.943,-0.675 -1.561,-1.005 -0.589,-0.313 -1.234,-0.573 -1.938,-0.781 -0.704,-0.205 -1.522,-0.309 -2.456,-0.309 -2.069,0 -3.658,0.659 -4.771,1.974 -1.113,1.318 -1.67,3.104 -1.67,5.36 0,2.33 0.572,4.1 1.713,5.309 1.142,1.208 2.761,1.81 4.859,1.81 0.976,0 1.855,-0.109 2.638,-0.332 0.781,-0.221 1.432,-0.481 1.948,-0.778 0.49,-0.286 0.919,-0.586 1.293,-0.9 0.372,-0.313 0.718,-0.621 1.035,-0.919l1.098 0 0 6.596c-1.221,0.573 -2.494,1.026 -3.824,1.363 -1.328,0.335 -2.795,0.504 -4.402,0.504z"/>
  <path class="fil0" d="M312.719 137.131c-0.834,0.216 -1.719,0.383 -2.654,0.504 -0.937,0.123 -2.08,0.183 -3.431,0.183 -3.022,0 -5.269,-0.61 -6.742,-1.83 -1.475,-1.219 -2.213,-3.309 -2.213,-6.267l0.001 -11.303 -3.19 0 0 -5.273 3.19 0 0 -6.902 7.812 0 0 6.902 7.227 0 0 5.273 -7.227 0 0 8.571c0,0.848 0.006,1.587 0.021,2.22 0.015,0.63 0.129,1.196 0.344,1.701 0.2,0.5 0.553,0.899 1.06,1.194 0.508,0.295 1.25,0.441 2.221,0.441 0.4,0 0.924,-0.083 1.575,-0.252 0.652,-0.169 1.104,-0.323 1.362,-0.464l0.644 0 0 5.302z"/>
 </g>
</svg>
